# xmcd CD database file
#
# Track frame offsets:
#	150
#	17002
#	32177
#	50277
#	64531
#	83079
#	98894
#	122344
#	138850
#	155350
#	170743
#	187384
#	204185
#
# Disc length: 2792 seconds
#
# Revision: 0
# Processed by: cddbd v1.5.1PL2 Copyright (c) Steve Scherf et al.
# Submitted via: CDex 1.51
#
DISCID=a50ae60d
DTITLE=Rosanne Cash - Black Cadillac
DYEAR=2006
DGENRE=Country
TTITLE0=Black Cadillac
TTITLE1=Radio Operator
TTITLE2=I Was Watching You
TTITLE3=Burn Down This Town
TTITLE4=God Is In The Roses
TTITLE5=House On The Lake
TTITLE6=The World Unseen
TTITLE7=Like Fugitives
TTITLE8=Dreams Are Not My Home
TTITLE9=Like A Wave
TTITLE10=World Without Sound
TTITLE11=The Good Intent
TTITLE12=0:71
EXTD=YEAR: 2006
EXTT0=
EXTT1=
EXTT2=
EXTT3=
EXTT4=
EXTT5=
EXTT6=
EXTT7=
EXTT8=
EXTT9=
EXTT10=
EXTT11=
EXTT12=
PLAYORDER=
